<svg width="300" height="300" viewBox="0 0 300 300" fill="none" xmlns="http://www.w3.org/2000/svg">
<path d="M1 0C0.447715 0 0 0.447714 0 0.999999V161.917C9.75411 158.239 20.3208 156.4 31.7002 156.4C49.1002 156.4 64.6002 160.7 78.2002 169.3C91.8002 177.9 102.4 190.4 110 206.8C117.8 223 121.7 242.4 121.7 265C121.7 277.636 120.481 289.302 118.043 300H172.52L212.756 262C221.356 253.8 227.156 246.8 230.156 241C233.156 235 234.656 229.1 234.656 223.3C234.656 214.9 231.756 208.5 225.956 204.1C220.356 199.5 212.056 197.2 201.056 197.2C191.856 197.2 183.556 199 176.156 202.6C168.756 206 162.556 211.2 157.556 218.2L122.156 195.4C130.356 183.2 141.656 173.7 156.056 166.9C170.456 159.9 186.956 156.4 205.556 156.4C221.156 156.4 234.756 159 246.356 164.2C258.156 169.2 267.256 176.4 273.656 185.8C280.256 195 283.556 205.9 283.556 218.5C283.556 229.9 281.156 240.6 276.356 250.6C271.556 260.6 262.256 272 248.456 284.8L232.356 300H299C299.552 300 300 299.552 300 299V1C300 0.447715 299.552 0 299 0H1Z" fill="white"/>
<path d="M68.7817 300C71.4607 290.506 72.8002 278.839 72.8002 265C72.8002 242 69.1002 225 61.7002 214C54.5002 203 44.5002 197.5 31.7002 197.5C19.1002 197.5 9.1002 203 1.7002 214C1.10921 214.903 0.542478 215.846 0 216.83V299C0 299.552 0.447714 300 0.999999 300H68.7817Z" fill="white"/>
</svg>
