<svg width="300" height="300" viewBox="0 0 300 300" fill="none" xmlns="http://www.w3.org/2000/svg">
<path d="M1 0C0.447715 0 0 0.447714 0 0.999999V161.917C9.75411 158.239 20.3208 156.4 31.7002 156.4C49.1002 156.4 64.6002 160.7 78.2002 169.3C91.8002 177.9 102.4 190.4 110 206.8C117.8 223 121.7 242.4 121.7 265C121.7 277.636 120.481 289.302 118.043 300H238.022C235.264 286.667 222.352 280 199.284 280H177.084V247.9L220.284 199H130.884V160H277.884V191.5L230.484 245.5C248.884 248.5 262.984 255.4 272.784 266.2C281.359 275.476 286.183 286.742 287.254 300H299C299.552 300 300 299.552 300 299V1C300 0.447715 299.552 0 299 0H1Z" fill="white"/>
<path d="M68.7817 300C71.4607 290.506 72.8002 278.839 72.8002 265C72.8002 242 69.1002 225 61.7002 214C54.5002 203 44.5002 197.5 31.7002 197.5C19.1002 197.5 9.1002 203 1.7002 214C1.10921 214.903 0.542478 215.846 0 216.83V299C0 299.552 0.447714 300 0.999999 300H68.7817Z" fill="white"/>
</svg>
