<svg width="728" height="148" viewBox="0 0 728 148" fill="none" xmlns="http://www.w3.org/2000/svg">
<path d="M61.5996 147.2C49.9996 147.2 38.6663 145.933 27.5996 143.4C16.6663 140.733 7.66628 137.2 0.599609 132.8L15.7996 98.4C22.4663 102.267 29.9329 105.4 38.1996 107.8C46.4663 110.067 54.3996 111.2 61.9996 111.2C68.5329 111.2 73.1996 110.6 75.9996 109.4C78.7996 108.067 80.1996 106.133 80.1996 103.6C80.1996 100.667 78.3329 98.4667 74.5996 97.0001C70.9996 95.5334 64.9996 93.9334 56.5996 92.2001C45.7996 89.9334 36.7996 87.5334 29.5996 85C22.3996 82.3334 16.1329 78.0667 10.7996 72.2001C5.46628 66.2001 2.79961 58.1334 2.79961 48C2.79961 39.2001 5.26628 31.2001 10.1996 24C15.1329 16.8 22.4663 11.1334 32.1996 7.00004C42.0663 2.86671 53.9996 0.800049 67.9996 0.800049C77.5996 0.800049 86.9996 1.86671 96.1996 4.00004C105.533 6.00004 113.733 9.00004 120.8 13L106.6 47.2C92.8663 40.2667 79.8663 36.8 67.5996 36.8C55.4663 36.8 49.3996 39.7334 49.3996 45.6001C49.3996 48.4001 51.1996 50.5334 54.7996 52C58.3996 53.3334 64.3329 54.8 72.5996 56.4C83.2663 58.4 92.2663 60.7334 99.5996 63.4C106.933 65.9334 113.266 70.1334 118.6 76.0001C124.066 81.8667 126.8 89.8667 126.8 100C126.8 108.8 124.333 116.8 119.4 124C114.466 131.067 107.066 136.733 97.1996 141C87.4663 145.133 75.5996 147.2 61.5996 147.2Z" fill="#E8E9ED"/>
<path d="M197.845 97.6001L187.245 109.4V144H140.845V4.00004H187.245V54.8001L233.245 4.00004H284.645L228.645 65.6001L287.445 144H232.845L197.845 97.6001Z" fill="#E8E9ED"/>
<path d="M293.775 4.00004H340.975V144H293.775V4.00004Z" fill="#E8E9ED"/>
<path d="M363.696 4.00004H410.896V107.4H474.096V144H363.696V4.00004Z" fill="#E8E9ED"/>
<path d="M487.134 4.00004H534.334V107.4H597.534V144H487.134V4.00004Z" fill="#E8E9ED"/>
<path d="M662.771 147.2C651.171 147.2 639.838 145.933 628.771 143.4C617.838 140.733 608.838 137.2 601.771 132.8L616.971 98.4C623.638 102.267 631.105 105.4 639.371 107.8C647.638 110.067 655.572 111.2 663.172 111.2C669.705 111.2 674.372 110.6 677.172 109.4C679.972 108.067 681.371 106.133 681.371 103.6C681.371 100.667 679.505 98.4667 675.771 97.0001C672.171 95.5334 666.171 93.9334 657.771 92.2001C646.971 89.9334 637.971 87.5334 630.771 85C623.571 82.3334 617.305 78.0667 611.971 72.2001C606.638 66.2001 603.971 58.1334 603.971 48C603.971 39.2001 606.438 31.2001 611.371 24C616.305 16.8 623.638 11.1334 633.371 7.00004C643.238 2.86671 655.172 0.800049 669.172 0.800049C678.772 0.800049 688.171 1.86671 697.371 4.00004C706.705 6.00004 714.905 9.00004 721.971 13L707.771 47.2C694.038 40.2667 681.038 36.8 668.771 36.8C656.638 36.8 650.571 39.7334 650.571 45.6001C650.571 48.4001 652.371 50.5334 655.971 52C659.571 53.3334 665.505 54.8 673.771 56.4C684.438 58.4 693.438 60.7334 700.771 63.4C708.105 65.9334 714.438 70.1334 719.771 76.0001C725.238 81.8667 727.971 89.8667 727.971 100C727.971 108.8 725.505 116.8 720.571 124C715.638 131.067 708.238 136.733 698.371 141C688.638 145.133 676.771 147.2 662.771 147.2Z" fill="#E8E9ED"/>
</svg>
