<svg width="370" height="370" viewBox="0 0 370 370" fill="none" xmlns="http://www.w3.org/2000/svg">
<path fill-rule="evenodd" clip-rule="evenodd" d="M0 16C0 10.3995 0 7.59921 1.08993 5.46009C2.04867 3.57847 3.57847 2.04867 5.46009 1.08993C7.59921 0 10.3995 0 16 0H354C359.601 0 362.401 0 364.54 1.08993C366.422 2.04867 367.951 3.57847 368.91 5.46009C370 7.59921 370 10.3995 370 16V354C370 359.601 370 362.401 368.91 364.54C367.951 366.422 366.422 367.951 364.54 368.91C362.401 370 359.601 370 354 370H16C10.3995 370 7.59921 370 5.46009 368.91C3.57847 367.951 2.04867 366.422 1.08993 364.54C0 362.401 0 359.601 0 354V16Z" fill="#F1F1F1"/>
<path d="M16 0.5H354C356.809 0.5 358.885 0.500389 360.527 0.634581C362.164 0.768297 363.326 1.03237 364.313 1.53544C366.1 2.44624 367.554 3.89955 368.465 5.68709C368.968 6.67442 369.232 7.83613 369.365 9.47274C369.5 11.1152 369.5 13.1915 369.5 16V354C369.5 356.809 369.5 358.885 369.365 360.527C369.232 362.164 368.968 363.326 368.465 364.313C367.554 366.1 366.1 367.554 364.313 368.465C363.326 368.968 362.164 369.232 360.527 369.365C358.885 369.5 356.809 369.5 354 369.5H16C13.1915 369.5 11.1152 369.5 9.47273 369.365C7.83613 369.232 6.67442 368.968 5.68709 368.465C3.89955 367.554 2.44624 366.1 1.53544 364.313C1.03237 363.326 0.768297 362.164 0.634581 360.527C0.500389 358.885 0.5 356.809 0.5 354V16C0.5 13.1915 0.500389 11.1152 0.634581 9.47273C0.768297 7.83613 1.03237 6.67442 1.53544 5.68709C2.44624 3.89955 3.89955 2.44624 5.68709 1.53544C6.67442 1.03237 7.83613 0.768297 9.47274 0.634581C11.1152 0.500389 13.1915 0.5 16 0.5Z" stroke="#979797" stroke-opacity="0.2"/>
<path fill-rule="evenodd" clip-rule="evenodd" d="M168.584 162.325C168.584 155.521 163.103 150 156.347 150C149.591 150 144.109 155.521 144.109 162.325C144.109 169.13 149.591 174.65 156.347 174.65C163.103 174.65 168.584 169.13 168.584 162.325V162.325ZM233.85 186.976C226.937 172.516 223.652 158.571 207.336 160.271C191.02 161.971 179.802 190.448 174.703 193.138C169.605 195.828 174.703 179.444 164.506 182.867C154.308 186.291 147.561 197.849 144.11 203.409C140.66 208.97 107.399 210.692 144.11 215.734C180.822 220.777 218.528 220.645 233.85 215.734C249.171 210.824 240.762 201.435 233.85 186.976Z" fill="#E2E2E2"/>
</svg>
