<svg width="370" height="500" viewBox="0 0 370 500" fill="none" xmlns="http://www.w3.org/2000/svg">
<path fill-rule="evenodd" clip-rule="evenodd" d="M0 16C0 10.3995 0 7.59921 1.08993 5.46009C2.04867 3.57847 3.57847 2.04867 5.46009 1.08993C7.59921 0 10.3995 0 16 0H354C359.601 0 362.401 0 364.54 1.08993C366.422 2.04867 367.951 3.57847 368.91 5.46009C370 7.59921 370 10.3995 370 16V484C370 489.601 370 492.401 368.91 494.54C367.951 496.422 366.422 497.951 364.54 498.91C362.401 500 359.601 500 354 500H16C10.3995 500 7.59921 500 5.46009 498.91C3.57847 497.951 2.04867 496.422 1.08993 494.54C0 492.401 0 489.601 0 484V16Z" fill="#F1F1F1"/>
<path d="M16 0.5H354C356.809 0.5 358.885 0.500389 360.527 0.634581C362.164 0.768297 363.326 1.03237 364.313 1.53544C366.1 2.44624 367.554 3.89955 368.465 5.68709C368.968 6.67442 369.232 7.83613 369.365 9.47274C369.5 11.1152 369.5 13.1915 369.5 16V484C369.5 486.809 369.5 488.885 369.365 490.527C369.232 492.164 368.968 493.326 368.465 494.313C367.554 496.1 366.1 497.554 364.313 498.465C363.326 498.968 362.164 499.232 360.527 499.365C358.885 499.5 356.809 499.5 354 499.5H16C13.1915 499.5 11.1152 499.5 9.47273 499.365C7.83613 499.232 6.67442 498.968 5.68709 498.465C3.89955 497.554 2.44624 496.1 1.53544 494.313C1.03237 493.326 0.768297 492.164 0.634581 490.527C0.500389 488.885 0.5 486.809 0.5 484V16C0.5 13.1915 0.500389 11.1152 0.634581 9.47274C0.768297 7.83614 1.03237 6.67441 1.53544 5.68709C2.44624 3.89955 3.89955 2.44624 5.68709 1.53544C6.67442 1.03237 7.83613 0.768297 9.47274 0.634581C11.1152 0.500389 13.1915 0.5 16 0.5Z" stroke="#979797" stroke-opacity="0.2"/>
<path fill-rule="evenodd" clip-rule="evenodd" d="M168.584 227.325C168.584 220.521 163.103 215 156.347 215C149.591 215 144.109 220.521 144.109 227.325C144.109 234.13 149.591 239.65 156.347 239.65C163.103 239.65 168.584 234.13 168.584 227.325V227.325ZM233.85 251.976C226.937 237.516 223.652 223.571 207.336 225.271C191.02 226.971 179.802 255.448 174.703 258.138C169.605 260.828 174.703 244.444 164.506 247.867C154.308 251.291 147.561 262.849 144.11 268.409C140.66 273.97 107.399 275.692 144.11 280.734C180.822 285.777 218.528 285.645 233.85 280.734C249.171 275.824 240.762 266.435 233.85 251.976Z" fill="#E2E2E2"/>
</svg>
