<svg width="1170" height="556" viewBox="0 0 1170 556" fill="none" xmlns="http://www.w3.org/2000/svg">
<path d="M1170 0H0V556H1170V0Z" fill="white"/>
<path d="M37 508V48L36 47.9995V508H37Z" fill="#E8E9ED"/>
<path d="M1134 508V48L1133 47.9995V508H1134Z" fill="#E8E9ED"/>
<path d="M36 508L1134 508L1134 507L36 507L36 508Z" fill="#E8E9ED"/>
<path d="M36 49L1134 49L1134 48L36 48L36 49Z" fill="#E8E9ED"/>
<path d="M1140 48H1170V49H1140V48Z" fill="#E8E9ED"/>
<path d="M1133 42V12H1134V42H1133Z" fill="#E8E9ED"/>
<path d="M1140 508H1170V507H1140V508Z" fill="#E8E9ED"/>
<path d="M1133 514V544H1134V514H1133Z" fill="#E8E9ED"/>
<path d="M36 42V12H37V42H36Z" fill="#E8E9ED"/>
<path d="M30 49H8.74206e-08L0 48H30V49Z" fill="#E8E9ED"/>
<path d="M36 514V544H37V514H36Z" fill="#E8E9ED"/>
<path d="M30 507H8.74206e-08L0 508H30V507Z" fill="#E8E9ED"/>
</svg>
