<svg width="142" height="42" viewBox="0 0 142 42" fill="none" xmlns="http://www.w3.org/2000/svg">
<g id="logo">
<g id="Vector">
<path fill-rule="evenodd" clip-rule="evenodd" d="M7.938 8.6767C7.086 9.0847 6.3 9.6307 5.58 10.3147V0.0546875H0V27.0007H3.708C4.068 27.0007 4.356 26.9287 4.572 26.7847C4.788 26.6407 4.944 26.3767 5.04 25.9927L5.238 25.0567C5.526 25.3807 5.82 25.6807 6.12 25.9567C6.432 26.2327 6.774 26.4727 7.146 26.6767C7.518 26.8687 7.926 27.0187 8.37 27.1267C8.814 27.2347 9.318 27.2887 9.882 27.2887C11.058 27.2887 12.132 27.0487 13.104 26.5687C14.076 26.0767 14.91 25.3927 15.606 24.5167C16.314 23.6287 16.86 22.5667 17.244 21.3307C17.628 20.0947 17.82 18.7207 17.82 17.2087C17.82 15.8167 17.652 14.5567 17.316 13.4287C16.992 12.3007 16.524 11.3407 15.912 10.5487C15.3 9.7447 14.562 9.1267 13.698 8.6947C12.834 8.2627 11.874 8.0467 10.818 8.0467C9.762 8.0467 8.802 8.2567 7.938 8.6767ZM6.948 22.8967C6.456 22.7047 6 22.3807 5.58 21.9247V14.0047C6.072 13.4287 6.57 12.9907 7.074 12.6907C7.578 12.3907 8.172 12.2407 8.856 12.2407C9.372 12.2407 9.828 12.3367 10.224 12.5287C10.632 12.7087 10.968 13.0087 11.232 13.4287C11.508 13.8367 11.712 14.3707 11.844 15.0307C11.988 15.6787 12.06 16.4707 12.06 17.4067C12.06 18.4867 11.97 19.3987 11.79 20.1427C11.61 20.8747 11.358 21.4687 11.034 21.9247C10.722 22.3687 10.344 22.6927 9.9 22.8967C9.456 23.0887 8.97 23.1847 8.442 23.1847C7.938 23.1847 7.44 23.0887 6.948 22.8967Z" fill="#55577D"/>
<path d="M25.7074 31.8427L35.6794 8.3347H31.1794C30.8554 8.3347 30.5554 8.4307 30.2794 8.6227C30.0034 8.8027 29.8114 9.0307 29.7034 9.3067L26.9314 17.3167C26.7874 17.6887 26.6494 18.0667 26.5174 18.4507L26.1214 19.6027C25.9414 18.8347 25.7074 18.0847 25.4194 17.3527L22.3594 9.3067C22.2514 9.0427 22.0774 8.8147 21.8374 8.6227C21.6094 8.4307 21.2794 8.3347 20.8474 8.3347H15.9154L23.3674 25.3627L19.7674 32.9227H23.9434C24.4714 32.9227 24.8554 32.8327 25.0954 32.6527C25.3354 32.4847 25.5394 32.2147 25.7074 31.8427Z" fill="#55577D"/>
<path fill-rule="evenodd" clip-rule="evenodd" d="M46.1326 12.9067C46.3006 12.8107 46.4566 12.6487 46.6006 12.4207L47.8606 10.4587C47.5126 10.1107 47.1106 9.7927 46.6546 9.5047C46.1986 9.2047 45.6946 8.9467 45.1426 8.7307C44.5906 8.5147 43.9966 8.3467 43.3606 8.2267C42.7366 8.1067 42.0886 8.0467 41.4166 8.0467C40.1806 8.0467 39.1006 8.2087 38.1766 8.5327C37.2526 8.8447 36.4846 9.2707 35.8726 9.8107C35.2606 10.3507 34.7986 10.9807 34.4866 11.7007C34.1866 12.4087 34.0366 13.1587 34.0366 13.9507C34.0366 14.8027 34.1626 15.5287 34.4146 16.1287C34.6666 16.7287 34.9966 17.2387 35.4046 17.6587C35.8126 18.0667 36.2746 18.4087 36.7906 18.6847C37.3186 18.9487 37.8526 19.1767 38.3926 19.3687C38.9326 19.5607 39.4606 19.7347 39.9766 19.8907C40.5046 20.0347 40.9726 20.1967 41.3806 20.3767C41.7886 20.5447 42.1186 20.7487 42.3706 20.9887C42.6226 21.2287 42.7486 21.5347 42.7486 21.9067C42.7486 22.1107 42.7066 22.3087 42.6226 22.5007C42.5386 22.6927 42.4066 22.8667 42.2266 23.0227C42.0466 23.1787 41.8066 23.3047 41.5066 23.4007C41.2066 23.4847 40.8406 23.5267 40.4086 23.5267C39.7966 23.5267 39.2866 23.4547 38.8786 23.3107C38.4826 23.1667 38.1346 23.0107 37.8346 22.8427C37.5346 22.6747 37.2526 22.5187 36.9886 22.3747C36.7366 22.2307 36.4486 22.1587 36.1246 22.1587C35.7766 22.1587 35.4886 22.2307 35.2606 22.3747C35.0446 22.5067 34.8646 22.6927 34.7206 22.9327L33.4246 24.9847C33.7846 25.3087 34.2166 25.6147 34.7206 25.9027C35.2246 26.1787 35.7706 26.4187 36.3586 26.6227C36.9586 26.8267 37.5766 26.9887 38.2126 27.1087C38.8486 27.2287 39.4846 27.2887 40.1206 27.2887C41.3926 27.2887 42.5146 27.1327 43.4866 26.8207C44.4706 26.5087 45.2926 26.0707 45.9526 25.5067C46.6234 24.9437 47.1268 24.273 47.4628 23.4948C47.5273 23.8047 47.6157 24.0974 47.7278 24.3727C47.9918 25.0087 48.3638 25.5427 48.8438 25.9747C49.3358 26.4067 49.9298 26.7367 50.6258 26.9647C51.3218 27.1807 52.0958 27.2887 52.9478 27.2887C53.5838 27.2887 54.1598 27.2347 54.6758 27.1267C55.2038 27.0307 55.6958 26.8807 56.1518 26.6767C56.6198 26.4607 57.0698 26.2027 57.5018 25.9027C57.9338 25.6027 58.3838 25.2547 58.8518 24.8587L59.2478 25.8847C59.4278 26.3407 59.6498 26.6407 59.9138 26.7847C60.1898 26.9287 60.5918 27.0007 61.1198 27.0007H63.6758V15.3367C63.6758 14.2687 63.5078 13.2847 63.1718 12.3847C62.8358 11.4847 62.3498 10.7107 61.7138 10.0627C61.0898 9.4027 60.3218 8.8927 59.4098 8.5327C58.5098 8.1607 57.4958 7.97469 56.3678 7.97469C54.7958 7.97469 53.3198 8.2207 51.9398 8.7127C50.5718 9.1927 49.3238 9.9307 48.1958 10.9267L49.2038 12.6727C49.3718 12.9367 49.5878 13.1647 49.8518 13.3567C50.1158 13.5487 50.4398 13.6447 50.8238 13.6447C51.2558 13.6447 51.6278 13.5727 51.9398 13.4287C52.2518 13.2847 52.5698 13.1227 52.8938 12.9427C53.2298 12.7627 53.6078 12.6007 54.0278 12.4567C54.4478 12.3127 54.9878 12.2407 55.6478 12.2407C56.4758 12.2407 57.1118 12.4867 57.5558 12.9787C58.0118 13.4587 58.2398 14.2447 58.2398 15.3367V16.1287C56.1038 16.1767 54.3338 16.3927 52.9298 16.7767C51.5258 17.1607 50.4098 17.6407 49.5818 18.2167C48.7998 18.7494 48.2372 19.341 47.8941 19.9914C47.8318 19.6245 47.7307 19.2909 47.5906 18.9907C47.3506 18.4507 47.0266 17.9947 46.6186 17.6227C46.2106 17.2387 45.7486 16.9207 45.2326 16.6687C44.7166 16.4047 44.1886 16.1767 43.6486 15.9847C43.1086 15.7927 42.5806 15.6187 42.0646 15.4627C41.5486 15.3067 41.0866 15.1447 40.6786 14.9767C40.2706 14.7967 39.9406 14.5927 39.6886 14.3647C39.4486 14.1367 39.3286 13.8487 39.3286 13.5007C39.3286 13.0207 39.5146 12.6487 39.8866 12.3847C40.2706 12.1087 40.8166 11.9707 41.5246 11.9707C42.0166 11.9707 42.4546 12.0307 42.8386 12.1507C43.2226 12.2587 43.5646 12.3787 43.8646 12.5107C44.1766 12.6427 44.4646 12.7687 44.7286 12.8887C44.9926 12.9967 45.2566 13.0507 45.5206 13.0507C45.7726 13.0507 45.9766 13.0027 46.1326 12.9067ZM58.2398 19.4047C57.1238 19.4527 56.2058 19.5487 55.4858 19.6927C54.7658 19.8367 54.1958 20.0167 53.7758 20.2327C53.3558 20.4487 53.0618 20.6947 52.8938 20.9707C52.7378 21.2467 52.6598 21.5467 52.6598 21.8707C52.6598 22.5067 52.8338 22.9567 53.1818 23.2207C53.5298 23.4727 54.0398 23.5987 54.7118 23.5987C55.4318 23.5987 56.0618 23.4727 56.6018 23.2207C57.1418 22.9687 57.6878 22.5607 58.2398 21.9967V19.4047Z" fill="#55577D"/>
<path d="M70.2307 10.3507C70.5907 10.0147 70.9627 9.7027 71.3467 9.4147C71.7307 9.1267 72.1387 8.8867 72.5707 8.6947C73.0147 8.4907 73.4887 8.3347 73.9927 8.2267C74.5087 8.1067 75.0667 8.0467 75.6667 8.0467C76.6867 8.0467 77.5867 8.2267 78.3667 8.5867C79.1587 8.9347 79.8247 9.4267 80.3647 10.0627C80.9047 10.6867 81.3127 11.4367 81.5887 12.3127C81.8647 13.1767 82.0027 14.1187 82.0027 15.1387V27.0007H76.4227V15.1387C76.4227 14.2267 76.2127 13.5187 75.7927 13.0147C75.3727 12.4987 74.7547 12.2407 73.9387 12.2407C73.3267 12.2407 72.7507 12.3727 72.2107 12.6367C71.6827 12.8887 71.1666 13.2367 70.6627 13.6807V27.0007H65.0827V8.3347H68.5387C69.2346 8.3347 69.6907 8.6467 69.9067 9.2707L70.2307 10.3507Z" fill="#55577D"/>
<path d="M100.621 8.3347L94.796 22.0676C94.5916 22.0236 94.3796 22.0005 94.1621 22.0005C92.5053 22.0005 91.1621 23.3436 91.1621 25.0005C91.1621 26.04 91.6908 26.956 92.494 27.4943L90.6494 31.8427C90.5059 32.1605 90.3361 32.4039 90.14 32.5728C89.7818 31.9098 89.2082 31.4144 88.5452 31.1711C87.2342 30.7026 86.0832 31.0976 85.2141 31.8629L88.3094 25.3627L80.8574 8.3347H85.7894C86.2214 8.3347 86.5514 8.4307 86.7794 8.6227C87.0194 8.8147 87.1934 9.0427 87.3014 9.3067L90.3614 17.3527C90.6494 18.0847 90.8834 18.8347 91.0634 19.6027L91.4594 18.4507C91.5914 18.0667 91.7294 17.6887 91.8734 17.3167L94.6454 9.3067C94.7534 9.0307 94.9454 8.8027 95.2214 8.6227C95.4974 8.4307 95.7974 8.3347 96.121 8.3347H100.621Z" fill="#55577D"/>
</g>
<path id="Vector_2" fill-rule="evenodd" clip-rule="evenodd" d="M89.0717 37.474C90.5362 35.0188 89.4348 32.8134 87.7678 32.2018C84.9193 31.1839 82.8265 34.2423 82.7377 36.3188C83.4299 38.8003 81.9488 40.4585 81.6943 40.6594C83.6579 42.5045 87.4817 40.3924 89.0717 37.474Z" fill="#F46AA0"/>
<g id="Vector_3">
<path d="M94.1621 27.0005C95.2667 27.0005 96.1621 26.1051 96.1621 25.0005C96.1621 23.8959 95.2667 23.0005 94.1621 23.0005C93.0575 23.0005 92.1621 23.8959 92.1621 25.0005C92.1621 26.1051 93.0575 27.0005 94.1621 27.0005Z" fill="#AAABBE"/>
<path fill-rule="evenodd" clip-rule="evenodd" d="M114.509 27.0004C113.981 27.0004 113.555 26.8804 113.231 26.6404C112.907 26.3884 112.661 26.0704 112.493 25.6864L110.945 21.1144H100.973L99.425 25.6864C99.293 26.0224 99.053 26.3284 98.705 26.6044C98.369 26.8684 97.949 27.0004 97.445 27.0004H96.398C96.873 26.4697 97.162 25.7688 97.162 25.0005C97.162 23.4978 96.057 22.2532 94.6152 22.0345L102.845 0.774414H109.073L118.485 25.0881V8.3344H121.797C122.073 8.3344 122.301 8.3584 122.481 8.4064C122.673 8.4544 122.829 8.5324 122.949 8.6404C123.081 8.7364 123.177 8.8684 123.237 9.0364C123.309 9.2044 123.369 9.4084 123.417 9.6484L123.705 11.2144C124.281 10.2064 124.941 9.4144 125.685 8.8384C126.441 8.2624 127.305 7.97441 128.277 7.97441C129.117 7.97441 129.801 8.1724 130.329 8.5684L130.327 8.5849L131.619 8.3344L132.717 3.78041C132.861 3.20441 133.269 2.91641 133.941 2.91641H136.857V8.3704H141.483V12.1864H136.857V21.4564C136.857 21.8884 136.959 22.2484 137.163 22.5364C137.379 22.8124 137.685 22.9504 138.081 22.9504C138.285 22.9504 138.453 22.9324 138.585 22.8964C138.729 22.8484 138.849 22.8004 138.945 22.7524C139.053 22.6924 139.149 22.6444 139.233 22.6084C139.329 22.5604 139.437 22.5364 139.557 22.5364C139.725 22.5364 139.857 22.5784 139.953 22.6624C140.061 22.7344 140.169 22.8544 140.277 23.0224L141.969 25.6684C141.249 26.2084 140.439 26.6164 139.539 26.8924C138.639 27.1564 137.709 27.2884 136.749 27.2884C135.861 27.2884 135.075 27.1624 134.391 26.9104C133.719 26.6464 133.149 26.2804 132.681 25.8124C132.225 25.3324 131.877 24.7564 131.637 24.0844C131.397 23.4124 131.277 22.6624 131.277 21.8344V12.1864H130.011L129.969 12.6724C129.909 12.9364 129.807 13.1164 129.663 13.2124C129.531 13.3084 129.345 13.3564 129.105 13.3564C129.009 13.3564 128.883 13.3504 128.727 13.3384C128.571 13.3264 128.409 13.3144 128.241 13.3024C128.073 13.2784 127.899 13.2604 127.719 13.2484C127.551 13.2244 127.395 13.2124 127.251 13.2124C126.435 13.2124 125.781 13.4284 125.289 13.8604C124.809 14.2924 124.401 14.8924 124.065 15.6604V27.0004H114.509ZM109.559 16.9744L107.129 9.7924C106.949 9.3364 106.757 8.8024 106.553 8.1904C106.349 7.56641 106.145 6.89441 105.941 6.17441C105.761 6.90641 105.569 7.58441 105.365 8.2084C105.161 8.8324 104.969 9.3724 104.789 9.8284L102.377 16.9744H109.559Z" fill="#AAABBE"/>
</g>
</g>
</svg>
