<svg width="1097" height="130" viewBox="0 0 1097 130" fill="none" xmlns="http://www.w3.org/2000/svg">
<path d="M59.7388 3.1C71.1848 3.1 81.1558 4.988 89.6518 8.764C98.1479 12.54 104.697 17.968 109.299 25.048C113.901 32.128 116.202 40.388 116.202 49.828C116.202 59.268 113.901 67.528 109.299 74.608C104.697 81.688 98.1479 87.116 89.6518 90.892C81.1558 94.668 71.1848 96.556 59.7388 96.556H41.8618V127H0.0898438V3.1H59.7388ZM57.0838 64.342C62.7478 64.342 66.9958 63.103 69.8279 60.625C72.6598 58.029 74.0758 54.43 74.0758 49.828C74.0758 45.226 72.6598 41.686 69.8279 39.208C66.9958 36.612 62.7478 35.314 57.0838 35.314H41.8618V64.342H57.0838Z" fill="#E8E9ED"/>
<path d="M196.589 129.832C183.255 129.832 171.278 127.059 160.658 121.513C150.038 115.967 141.719 108.297 135.701 98.503C129.683 88.591 126.674 77.44 126.674 65.05C126.674 52.66 129.683 41.568 135.701 31.774C141.719 21.862 150.038 14.133 160.658 8.587C171.278 3.041 183.255 0.268005 196.589 0.268005C209.923 0.268005 221.9 3.041 232.52 8.587C243.14 14.133 251.459 21.862 257.477 31.774C263.495 41.568 266.504 52.66 266.504 65.05C266.504 77.44 263.495 88.591 257.477 98.503C251.459 108.297 243.14 115.967 232.52 121.513C221.9 127.059 209.923 129.832 196.589 129.832ZM196.589 96.025C201.781 96.025 206.442 94.786 210.572 92.308C214.82 89.712 218.183 86.113 220.661 81.511C223.139 76.791 224.378 71.304 224.378 65.05C224.378 58.796 223.139 53.368 220.661 48.766C218.183 44.046 214.82 40.447 210.572 37.969C206.442 35.373 201.781 34.075 196.589 34.075C191.397 34.075 186.677 35.373 182.429 37.969C178.299 40.447 174.995 44.046 172.517 48.766C170.039 53.368 168.8 58.796 168.8 65.05C168.8 71.304 170.039 76.791 172.517 81.511C174.995 86.113 178.299 89.712 182.429 92.308C186.677 94.786 191.397 96.025 196.589 96.025Z" fill="#E8E9ED"/>
<path d="M334.765 95.848H323.437V127H281.665V3.1H341.314C352.76 3.1 362.731 4.988 371.227 8.764C379.723 12.54 386.272 17.968 390.874 25.048C395.476 32.128 397.777 40.388 397.777 49.828C397.777 58.678 395.771 66.407 391.759 73.015C387.747 79.623 381.965 84.874 374.413 88.768L400.432 127H355.828L334.765 95.848ZM355.651 49.828C355.651 45.226 354.235 41.686 351.403 39.208C348.571 36.612 344.323 35.314 338.659 35.314H323.437V64.342H338.659C344.323 64.342 348.571 63.103 351.403 60.625C354.235 58.029 355.651 54.43 355.651 49.828Z" fill="#E8E9ED"/>
<path d="M438.726 35.491H402.441V3.1H516.783V35.491H480.498V127H438.726V35.491Z" fill="#E8E9ED"/>
<path d="M569.405 34.606V55.846H621.089V87.352H569.405V127H527.633V3.1H628.346V34.606H569.405Z" fill="#E8E9ED"/>
<path d="M705.637 129.832C692.303 129.832 680.326 127.059 669.706 121.513C659.086 115.967 650.767 108.297 644.749 98.503C638.731 88.591 635.722 77.44 635.722 65.05C635.722 52.66 638.731 41.568 644.749 31.774C650.767 21.862 659.086 14.133 669.706 8.587C680.326 3.041 692.303 0.268005 705.637 0.268005C718.971 0.268005 730.948 3.041 741.568 8.587C752.188 14.133 760.507 21.862 766.525 31.774C772.543 41.568 775.552 52.66 775.552 65.05C775.552 77.44 772.543 88.591 766.525 98.503C760.507 108.297 752.188 115.967 741.568 121.513C730.948 127.059 718.971 129.832 705.637 129.832ZM705.637 96.025C710.829 96.025 715.49 94.786 719.62 92.308C723.868 89.712 727.231 86.113 729.709 81.511C732.187 76.791 733.426 71.304 733.426 65.05C733.426 58.796 732.187 53.368 729.709 48.766C727.231 44.046 723.868 40.447 719.62 37.969C715.49 35.373 710.829 34.075 705.637 34.075C700.445 34.075 695.725 35.373 691.477 37.969C687.347 40.447 684.043 44.046 681.565 48.766C679.087 53.368 677.848 58.796 677.848 65.05C677.848 71.304 679.087 76.791 681.565 81.511C684.043 86.113 687.347 89.712 691.477 92.308C695.725 94.786 700.445 96.025 705.637 96.025Z" fill="#E8E9ED"/>
<path d="M790.713 3.1H832.485V94.609H888.417V127H790.713V3.1Z" fill="#E8E9ED"/>
<path d="M899.955 3.1H941.727V127H899.955V3.1Z" fill="#E8E9ED"/>
<path d="M1026.79 129.832C1013.46 129.832 1001.48 127.059 990.864 121.513C980.244 115.967 971.925 108.297 965.907 98.503C959.889 88.591 956.88 77.44 956.88 65.05C956.88 52.66 959.889 41.568 965.907 31.774C971.925 21.862 980.244 14.133 990.864 8.587C1001.48 3.041 1013.46 0.268005 1026.79 0.268005C1040.13 0.268005 1052.11 3.041 1062.73 8.587C1073.35 14.133 1081.66 21.862 1087.68 31.774C1093.7 41.568 1096.71 52.66 1096.71 65.05C1096.71 77.44 1093.7 88.591 1087.68 98.503C1081.66 108.297 1073.35 115.967 1062.73 121.513C1052.11 127.059 1040.13 129.832 1026.79 129.832ZM1026.79 96.025C1031.99 96.025 1036.65 94.786 1040.78 92.308C1045.03 89.712 1048.39 86.113 1050.87 81.511C1053.34 76.791 1054.58 71.304 1054.58 65.05C1054.58 58.796 1053.34 53.368 1050.87 48.766C1048.39 44.046 1045.03 40.447 1040.78 37.969C1036.65 35.373 1031.99 34.075 1026.79 34.075C1021.6 34.075 1016.88 35.373 1012.63 37.969C1008.5 40.447 1005.2 44.046 1002.72 48.766C1000.24 53.368 999.006 58.796 999.006 65.05C999.006 71.304 1000.24 76.791 1002.72 81.511C1005.2 86.113 1008.5 89.712 1012.63 92.308C1016.88 94.786 1021.6 96.025 1026.79 96.025Z" fill="#E8E9ED"/>
</svg>
