<svg width="20" height="20" viewBox="0 0 20 20" fill="none" xmlns="http://www.w3.org/2000/svg">
<path d="M9.85715 0C4.41518 0 0 4.41518 0 9.85714C0 14.2081 2.82366 17.9046 6.73828 19.2137C7.23884 19.3036 7.41853 18.9955 7.41853 18.7388C7.41853 18.495 7.40569 17.7249 7.40569 16.9035C7.40569 16.9035 4.65904 17.4939 4.08147 15.7355C4.08147 15.7355 3.63226 14.5932 2.99052 14.298C2.99052 14.298 2.09208 13.6819 3.05469 13.6948C3.05469 13.6948 4.03014 13.7718 4.5692 14.7087C5.42913 16.2232 6.86663 15.7868 7.43137 15.5301C7.52121 14.9012 7.77791 14.4648 8.06027 14.2081C5.86552 13.9643 3.56808 13.1172 3.56808 9.34375C3.56808 8.26563 3.95312 7.39286 4.58203 6.69978C4.47935 6.44308 4.14565 5.44196 4.68472 4.08147C5.50614 3.82478 7.39286 5.09542 7.39286 5.09542C8.17578 4.87723 9.02288 4.76172 9.85715 4.76172C10.6914 4.76172 11.5385 4.87723 12.3214 5.09542C12.3214 5.09542 14.2082 3.82478 15.0296 4.08147C15.5686 5.44196 15.2349 6.44308 15.1323 6.69978C15.7612 7.39286 16.1462 8.26563 16.1462 9.34375C16.1462 13.13 13.8359 13.9643 11.6412 14.2081C12.0006 14.5162 12.3086 15.1066 12.3086 16.0307C12.3086 17.3527 12.2958 18.418 12.2958 18.7388C12.2958 18.9955 12.4754 19.3036 12.976 19.2137C16.8906 17.9046 19.7143 14.2081 19.7143 9.85714C19.7143 4.41518 15.2991 0 9.85715 0ZM3.73494 14.1568C3.70927 14.2081 3.63226 14.221 3.56808 14.1825C3.49108 14.144 3.45257 14.0798 3.47824 14.0285C3.50391 13.99 3.56809 13.9771 3.6451 14.0028C3.7221 14.0413 3.76061 14.1055 3.73494 14.1568ZM4.13281 14.5932C4.08147 14.6445 3.99163 14.6189 3.92746 14.5547C3.86329 14.4777 3.85045 14.3878 3.90179 14.3493C3.95313 14.298 4.04297 14.3237 4.10715 14.3878C4.17132 14.4648 4.18415 14.5547 4.13281 14.5932ZM4.51786 15.1708C4.46652 15.2093 4.36384 15.1708 4.29967 15.0809C4.23549 14.9911 4.23549 14.8884 4.29967 14.8499C4.36384 14.7985 4.46652 14.8371 4.51786 14.9269C4.58203 15.0167 4.58203 15.1194 4.51786 15.1708ZM5.05692 15.7098C5.00558 15.774 4.89007 15.7612 4.80022 15.6713C4.71038 15.5943 4.68471 15.4788 4.74889 15.4275C4.80023 15.3633 4.91574 15.3761 5.00558 15.466C5.08259 15.543 5.10826 15.6585 5.05692 15.7098ZM5.78851 16.0307C5.76284 16.1077 5.64733 16.1462 5.54465 16.1077C5.42913 16.082 5.35212 15.9922 5.37779 15.9152C5.40346 15.8382 5.51898 15.7997 5.62166 15.8253C5.73717 15.8638 5.81418 15.9537 5.78851 16.0307ZM6.5971 16.0949C6.5971 16.1719 6.50726 16.236 6.39175 16.236C6.2634 16.2489 6.17355 16.1847 6.17355 16.0949C6.17355 16.0179 6.26339 15.9537 6.37891 15.9537C6.49442 15.9409 6.5971 16.005 6.5971 16.0949ZM7.34152 15.9665C7.35436 16.0435 7.27735 16.1205 7.16183 16.1462C7.04632 16.1719 6.94364 16.1205 6.93081 16.0435C6.91797 15.9537 6.99498 15.8767 7.1105 15.851C7.22601 15.8382 7.32869 15.8895 7.34152 15.9665Z" fill="#55577D"/>
</svg>
